<!-- icon666.com - MILLIONS vector ICONS FREE --><svg version="1.1" id="Layer_1" xmlns="http://www.w3.org/2000/svg" xmlns:xlink="http://www.w3.org/1999/xlink" x="0px" y="0px" viewBox="0 0 512.001 512.001" style="enable-background:new 0 0 512.001 512.001;" xml:space="preserve"><g><g><path d="M206.394,242.441c-11.107,0-20.111,9.004-20.111,20.111v10.726c0,11.107,9.004,20.111,20.111,20.111 s20.111-9.004,20.111-20.111v-10.726C226.505,251.445,217.501,242.441,206.394,242.441z"></path></g></g><g><g><path d="M511.721,148.145c-4.28-60.862-57.265-106.905-118.143-102.619c-45.154,3.175-83.013,33.125-97.073,74.91h-81.01 c-14.06-41.785-51.919-71.735-97.075-74.91C57.557,41.257,4.559,87.283,0.279,148.145c-2.074,29.484,7.458,58.011,26.843,80.324 c18.511,21.313,43.899,34.494,71.829,37.444l-5.589,58.556l-30.44-2.133c-11.105-0.791-20.691,7.575-21.468,18.655 c-0.776,11.081,7.575,20.693,18.655,21.468l29.869,2.093c0.052,14.017,2.734,27.201,7.753,39.161l-27.926,10.61 c-10.383,3.944-15.602,15.559-11.658,25.943c3.052,8.032,10.694,12.974,18.804,12.974c2.374,0,4.788-0.422,7.138-1.315 l37.67-14.313c13.956,12.686,32.07,21.981,53.542,26.676c28.49,6.23,56.369,0.524,76.48-15.664 c1.467-1.181,2.874-2.404,4.218-3.666c1.345,1.262,2.752,2.486,4.218,3.666c14.776,11.892,33.743,18.129,54.068,18.129 c7.339,0,14.852-0.813,22.411-2.467c21.457-4.694,39.562-13.99,53.513-26.687l37.696,14.323c2.352,0.893,4.766,1.315,7.139,1.315 c8.11,0,15.752-4.942,18.804-12.973c3.944-10.382-1.274-21.998-11.656-25.944l-27.961-10.624 c5.022-11.955,7.713-25.134,7.794-39.148l29.865-2.093c11.08-0.775,19.431-10.387,18.655-21.468 c-0.775-11.081-10.376-19.446-21.468-18.655l-30.413,2.13l-5.595-58.556c27.922-2.954,53.3-16.133,71.807-37.441 C504.263,206.156,513.796,177.63,511.721,148.145z M454.514,202.094c-11.684,13.45-27.668,21.819-45.268,23.79l-2.203-23.048 c-1.056-11.056-10.875-19.172-21.931-18.106c-11.057,1.056-19.163,10.875-18.106,21.931l11.525,120.616l-28.738,2.014 c-11.08,0.775-19.431,10.387-18.655,21.468c0.743,10.601,9.574,18.706,20.04,18.706c0.473,0,0.948-0.017,1.427-0.051l29.107-2.039 c-0.408,7.942-2.157,15.327-5.171,22.003l-35.054-13.319c-10.387-3.95-21.999,1.274-25.944,11.655 c-3.944,10.383,1.274,21.998,11.656,25.944l16.689,6.34c-4.852,2.071-10.116,3.755-15.784,4.996 c-16.538,3.616-32.09,0.81-42.664-7.704c-5.349-4.305-8.771-9.798-9.113-14.531c5.514-3.586,9.169-9.791,9.169-16.859 c0-11.107-9.004-20.111-20.111-20.111h-18.77c-11.107,0-20.111,9.004-20.111,20.111c0,7.068,3.655,13.273,9.169,16.859 c-0.342,4.731-3.763,10.226-9.113,14.531c-10.577,8.512-26.123,11.318-42.664,7.704c-5.671-1.24-10.938-2.923-15.792-4.993 l16.696-6.343c10.383-3.944,15.603-15.559,11.658-25.943c-3.944-10.384-15.563-15.602-25.943-11.658l-35.093,13.333 c-3.013-6.679-4.749-14.07-5.136-22.016l29.108,2.039c0.479,0.034,0.955,0.051,1.427,0.051c10.467,0,19.298-8.106,20.04-18.706 c0.776-11.081-7.575-20.693-18.655-21.468l-28.71-2.011l11.498-120.466c1.055-11.056-7.054-20.874-18.11-21.93 c-11.037-1.046-20.875,7.052-21.929,18.11l-2.185,22.893c-17.606-1.968-33.597-10.337-45.284-23.792 c-12.337-14.204-18.405-32.361-17.085-51.128c2.723-38.74,36.474-68.048,75.198-65.317c31.654,2.227,57.678,25.102,64.033,55.945 c0.548,10.617,9.305,19.064,20.057,19.064h112.62c10.754,0,19.51-8.446,20.057-19.064c6.355-30.843,32.38-53.719,64.031-55.945 c38.749-2.73,72.475,26.578,75.2,65.317C472.92,169.733,466.852,187.89,454.514,202.094z"></path></g></g><g><g><path d="M305.608,242.441c-11.107,0-20.111,9.004-20.111,20.111v10.726c0,11.107,9.004,20.111,20.111,20.111 s20.111-9.004,20.111-20.111v-10.726C325.718,251.445,316.714,242.441,305.608,242.441z"></path></g></g></svg>